<svg width="58" height="61" viewBox="0 0 58 61" fill="none" xmlns="http://www.w3.org/2000/svg">
<path d="M17.9625 51.6022C17.8904 51.9607 18.0366 52.3307 18.3397 52.5351L19.8164 53.5312C20.1195 53.7357 20.5251 53.7379 20.8227 53.5314L25.1419 50.5984C25.81 50.1444 26.696 50.742 26.5253 51.5315L25.4238 56.635C25.3517 56.9934 25.4979 57.3634 25.801 57.5679L26.5394 58.0659C28.599 59.4552 31.3972 58.9112 32.7864 56.8516L42.0131 43.1725L43.1874 41.4315L43.6907 40.6854L42.9446 40.1821L14.5915 21.0577L13.8453 20.5544L13.3421 21.3006L12.1678 23.0415L2.94107 36.7207C1.55183 38.7803 2.09573 41.5785 4.15537 42.9677L12.3551 48.4985C12.6582 48.7029 13.0638 48.7051 13.3613 48.4987L17.6805 45.5657C18.3486 45.1116 19.2347 45.7093 19.064 46.4988L17.9625 51.6022ZM45.3683 38.1983L47.0458 35.7111C48.8964 32.9675 48.1704 29.2323 45.4268 27.3818L40.4526 24.0266L43.8077 19.0524C45.6583 16.3088 44.9322 12.5736 42.1886 10.723C39.445 8.87242 35.7098 9.59847 33.8593 12.3421L30.5041 17.3163L25.5299 13.9611C22.7863 12.1106 19.0511 12.8366 17.2005 15.5802L15.5229 18.0673L45.3683 38.1983ZM37.9947 16.9408C37.6649 16.7183 37.437 16.374 37.361 15.9834C37.2851 15.5929 37.3675 15.1882 37.5899 14.8584C37.8124 14.5286 38.1568 14.3007 38.5473 14.2248C38.9378 14.1489 39.3425 14.2312 39.6723 14.4537C40.0021 14.6761 40.23 15.0205 40.3059 15.411C40.3818 15.8015 40.2995 16.2062 40.077 16.536C39.8546 16.8658 39.5102 17.0938 39.1197 17.1697C38.7292 17.2456 38.3245 17.1632 37.9947 16.9408Z" fill="#FFB800" stroke="#151515" stroke-width="2"/>
</svg>
